<svg xmlns="http://www.w3.org/2000/svg" viewBox="0 0 240 240" width="240" height="240" role="img" aria-label="JR Labs icon (text-free mark)">
  <defs>
    <linearGradient id="tileGrad" x1="0" y1="0" x2="0" y2="1">
      <stop offset="0" stop-color="#6366f1"/><stop offset="1" stop-color="#4338ca"/>
    </linearGradient>
  </defs>
  <rect x="24" y="24" width="192" height="192" rx="46" fill="url(#tileGrad)"/>
  <rect x="24" y="24" width="192" height="96" rx="46" fill="#ffffff" opacity="0.06"/>
  <!-- beaker ghosted behind -->
  <g opacity="0.14" fill="#ffffff">
    <path d="M102 60 h36 v11 h-36 z"/>
    <path d="M106 71 V104 L66 186 a10 10 0 0 0 9 14 h90 a10 10 0 0 0 9 -14 L134 104 V71 Z"/>
  </g>
  <!-- JR monogram (outlined Inter ExtraBold) -->
  <path d="M80.94 159.19Q66.29 159.19 58.07 151.83Q49.85 144.48 49.85 130.84L49.85 125.47L70.88 125.47L70.88 131.19Q70.88 136.85 73.56 139.71Q76.24 142.57 80.94 142.57Q85.65 142.57 88.30 139.71Q90.95 136.85 90.95 131.07L90.95 69.24L111.68 69.24L111.68 130.72Q111.68 144.42 103.58 151.80Q95.48 159.19 80.94 159.19M141.53 158L120.50 158L120.50 69.24L156.84 69.24Q166.85 69.24 174.12 72.84Q181.38 76.45 185.28 83.06Q189.19 89.67 189.19 98.73Q189.19 107.84 185.20 114.31Q181.20 120.77 173.82 124.10Q173.82 124.10 173.76 124.10L192.28 158L169.23 158L152.97 127.44L141.53 127.44L141.53 158M141.53 86.28L141.53 110.82L152.43 110.82Q157.38 110.82 160.68 109.51Q163.99 108.20 165.69 105.52Q167.38 102.84 167.38 98.73Q167.38 94.56 165.69 91.82Q163.99 89.08 160.65 87.68Q157.32 86.28 152.37 86.28" fill="#ffffff"/>
  <!-- emerald spark -->
  <path d="M188 66 l6 16 16 6 -16 6 -6 16 -6 -16 -16 -6 16 -6 z" fill="#34d399"/>
</svg>
